<?xml version="1.0" encoding="UTF-8" standalone="no"?>
<!-- Created with Inkscape (http://www.inkscape.org/) -->

<svg
   xmlns:dc="http://purl.org/dc/elements/1.1/"
   xmlns:cc="http://creativecommons.org/ns#"
   xmlns:rdf="http://www.w3.org/1999/02/22-rdf-syntax-ns#"
   xmlns:svg="http://www.w3.org/2000/svg"
   xmlns="http://www.w3.org/2000/svg"
   xmlns:sodipodi="http://sodipodi.sourceforge.net/DTD/sodipodi-0.dtd"
   xmlns:inkscape="http://www.inkscape.org/namespaces/inkscape"
   width="500mm"
   height="80mm"
   viewBox="0 0 500 80"
   version="1.1"
   id="svg8"
   inkscape:version="0.92.0 r15299"
   sodipodi:docname="logo.svg">
  <defs
     id="defs2" />
  <sodipodi:namedview
     id="base"
     pagecolor="#ffffff"
     bordercolor="#666666"
     borderopacity="1.0"
     inkscape:pageopacity="0.0"
     inkscape:pageshadow="2"
     inkscape:zoom="0.35"
     inkscape:cx="543.23938"
     inkscape:cy="291.36155"
     inkscape:document-units="px"
     inkscape:current-layer="layer1"
     showgrid="false"
     inkscape:window-width="1920"
     inkscape:window-height="1001"
     inkscape:window-x="-9"
     inkscape:window-y="-9"
     inkscape:window-maximized="1" />
  <metadata
     id="metadata5">
    <rdf:RDF>
      <cc:Work
         rdf:about="">
        <dc:format>image/svg+xml</dc:format>
        <dc:type
           rdf:resource="http://purl.org/dc/dcmitype/StillImage" />
        <dc:title></dc:title>
      </cc:Work>
    </rdf:RDF>
  </metadata>
  <g
     inkscape:label="Layer 1"
     inkscape:groupmode="layer"
     id="layer1"
     transform="translate(0,-217)">
    <g
       transform="matrix(0.96763828,0,0,0.96763828,-73.446263,93.304953)"
       id="Calque_1"
       style="fill:#58585a;fill-opacity:1">
      <g
         id="g25"
         style="fill:#58585a;fill-opacity:1">
        <path
           inkscape:connector-curvature="0"
           class="st1"
           d="m 379.9,150.6 v -20.3 h 3.9 v 20.3 z"
           id="path7"
           style="fill:#58585a;fill-opacity:1" />
        <path
           inkscape:connector-curvature="0"
           class="st1"
           d="m 386.7,150.6 v -15.3 h 3.4 v 1.7 c 1.3,-1.1 2.5,-2 4,-2 2.2,0 3.3,1.1 3.3,3.9 v 11.6 h -3.5 v -11.2 c 0,-1 -0.3,-1.7 -1.3,-1.7 -0.7,0 -1.5,0.7 -2.3,1.4 v 11.6 z"
           id="path9"
           style="fill:#58585a;fill-opacity:1" />
        <path
           inkscape:connector-curvature="0"
           class="st1"
           d="m 405.8,133.2 h -1 c -0.8,0 -1.2,0.5 -1.2,1.3 v 1.6 h 2.1 v 2.9 h -2.1 v 11.8 H 400 V 139 h -1.6 v -3 h 1.6 v -1.5 c 0,-3.5 1.5,-4.5 4.1,-4.5 0.5,0 1.1,0.1 1.7,0.2 z"
           id="path11"
           style="fill:#58585a;fill-opacity:1" />
        <path
           inkscape:connector-curvature="0"
           class="st1"
           d="m 406.6,140.9 c 0,-4 2.1,-5.8 5.6,-5.8 3.5,0 5.6,1.7 5.6,5.8 v 4.3 c 0,4 -2.1,5.8 -5.6,5.8 -3.5,0 -5.6,-1.7 -5.6,-5.8 z m 3.6,5.1 c 0,1.2 0.8,1.8 2.1,1.8 1.2,0 2.1,-0.6 2.1,-1.8 v -6 c 0,-1.2 -0.8,-1.8 -2.1,-1.8 -1.2,0 -2.1,0.6 -2.1,1.8 z"
           id="path13"
           style="fill:#58585a;fill-opacity:1" />
        <path
           inkscape:connector-curvature="0"
           class="st1"
           d="m 420.1,150.6 v -15.3 h 3.5 v 2 h 0.1 c 0.8,-1.5 1.9,-2.3 3.7,-2.3 v 3.8 c -0.6,-0.2 -1.3,-0.4 -1.9,-0.4 -1.2,0 -1.7,0.9 -1.7,1.7 v 10.5 z"
           id="path15"
           style="fill:#58585a;fill-opacity:1" />
        <path
           inkscape:connector-curvature="0"
           class="st1"
           d="m 428.7,135.3 h 3.4 v 1.7 c 1.2,-1 2.3,-2 3.8,-2 1.3,0 2.3,0.9 2.7,2.3 1.1,-1.2 2.2,-2.3 3.8,-2.3 2.1,0 3.2,1.3 3.2,4 v 11.5 h -3.5 V 139 c 0,-1 -0.4,-1.3 -0.9,-1.3 -0.7,0 -1.8,0.8 -2.2,1.4 v 11.6 h -3.5 V 139 c 0,-1 -0.4,-1.3 -1,-1.3 -0.8,0 -1.8,0.8 -2.2,1.4 v 11.6 h -3.5 v -15.4 z"
           id="path17"
           style="fill:#58585a;fill-opacity:1" />
        <path
           inkscape:connector-curvature="0"
           class="st1"
           d="m 448.6,132.7 v -3.2 h 3.5 v 3.2 z m 3.6,2.6 v 15.3 h -3.5 v -15.3 z"
           id="path19"
           style="fill:#58585a;fill-opacity:1" />
        <path
           inkscape:connector-curvature="0"
           class="st1"
           d="m 455.2,150.6 v -15.3 h 3.4 v 1.7 c 1.3,-1.1 2.5,-2 4,-2 2.2,0 3.3,1.1 3.3,3.9 v 11.6 h -3.5 v -11.2 c 0,-1 -0.3,-1.7 -1.3,-1.7 -0.7,0 -1.5,0.7 -2.3,1.4 v 11.6 z"
           id="path21"
           style="fill:#58585a;fill-opacity:1" />
        <path
           inkscape:connector-curvature="0"
           class="st1"
           d="m 480.1,138.2 c -0.3,-0.1 -0.8,-0.2 -1.1,-0.2 -0.4,0 -0.7,0.2 -1.2,0.3 0.2,1 0.5,1.8 0.5,2.7 0,3.8 -1.6,6 -5.1,6 -0.5,0 -0.9,0 -1.5,-0.2 -0.2,0.3 -0.6,0.5 -0.6,0.9 0,1.9 8.9,-1 8.9,4.5 0,2.6 -2.7,3.9 -6.8,3.9 -3.8,0 -5.8,-1.1 -5.8,-2.8 0,-1.2 1.3,-1.9 2.1,-2.4 -0.8,-0.5 -1.5,-1.2 -1.5,-2.2 0,-1.2 1.3,-2 2.1,-2.6 -1.7,-1.1 -2.3,-2.8 -2.3,-5.3 0,-3.3 1.3,-5.8 5.2,-5.8 1.5,0 3.1,0.7 4,1.8 0.9,-1.1 1.8,-1.8 3.1,-1.8 z m -8.7,13.1 c -0.4,0.4 -0.7,0.7 -0.7,1.2 0,0.8 1.2,1.1 3.2,1.1 1.7,0 2.7,-0.4 2.7,-1.2 0,-0.5 -0.2,-0.7 -1.3,-0.8 z m 1.7,-13.4 c -1.3,0 -1.9,0.9 -1.9,3.3 0,1.9 0.6,2.9 1.7,2.9 1.5,0 2,-0.6 2,-3.2 0,-2 -0.6,-3 -1.8,-3 z"
           id="path23"
           style="fill:#58585a;fill-opacity:1" />
      </g>
      <g
         id="g53"
         style="fill:#58585a;fill-opacity:1">
        <path
           inkscape:connector-curvature="0"
           class="st1"
           d="m 379.7,163.5 h 3.4 v 1.7 c 1.2,-1 2.3,-2 3.8,-2 1.3,0 2.3,0.9 2.7,2.3 1.1,-1.2 2.2,-2.3 3.8,-2.3 2.1,0 3.2,1.3 3.2,4 v 11.5 H 393 v -11.6 c 0,-1 -0.4,-1.3 -0.9,-1.3 -0.7,0 -1.8,0.8 -2.2,1.4 v 11.6 h -3.5 v -11.6 c 0,-1 -0.4,-1.3 -1,-1.3 -0.8,0 -1.8,0.8 -2.2,1.4 v 11.6 h -3.5 z"
           id="path27"
           style="fill:#58585a;fill-opacity:1" />
        <path
           inkscape:connector-curvature="0"
           class="st1"
           d="m 398.9,169 c 0,-4 2.1,-5.8 5.6,-5.8 3.5,0 5.6,1.7 5.6,5.8 v 4.3 c 0,4 -2.1,5.8 -5.6,5.8 -3.5,0 -5.6,-1.7 -5.6,-5.8 z m 3.5,5.2 c 0,1.2 0.8,1.8 2.1,1.8 1.2,0 2.1,-0.6 2.1,-1.8 v -6.1 c 0,-1.2 -0.8,-1.8 -2.1,-1.8 -1.2,0 -2.1,0.6 -2.1,1.8 z"
           id="path29"
           style="fill:#58585a;fill-opacity:1" />
        <path
           inkscape:connector-curvature="0"
           class="st1"
           d="m 412.4,178.8 v -15.3 h 3.5 v 2 h 0.1 c 0.8,-1.5 1.9,-2.3 3.7,-2.3 v 3.8 c -0.6,-0.2 -1.3,-0.4 -1.9,-0.4 -1.2,0 -1.7,0.9 -1.7,1.7 v 10.5 z"
           id="path31"
           style="fill:#58585a;fill-opacity:1" />
        <path
           inkscape:connector-curvature="0"
           class="st1"
           d="m 424.2,172 v 2 c 0,1.5 0.9,2.2 2.1,2.2 1.5,0 2.1,-1 2.1,-2.1 h 3.5 c -0.2,3.1 -2.1,5 -5.6,5 -3.4,0 -5.6,-2.1 -5.6,-5.4 v -5 c 0,-3.3 2.2,-5.4 5.6,-5.4 3.3,0 5.6,2.1 5.6,5.2 v 3.6 h -7.7 z m 4.1,-2.9 v -0.8 c 0,-1.3 -0.6,-2.2 -2.1,-2.2 -1.4,0 -2.1,0.8 -2.1,2.2 v 0.8 z"
           id="path33"
           style="fill:#58585a;fill-opacity:1" />
        <path
           inkscape:connector-curvature="0"
           class="st1"
           d="m 444.4,172 v 2 c 0,1.5 0.9,2.2 2.1,2.2 1.5,0 2.1,-1 2.1,-2.1 h 3.5 c -0.2,3.1 -2.1,5 -5.6,5 -3.4,0 -5.6,-2.1 -5.6,-5.4 v -5 c 0,-3.3 2.2,-5.4 5.6,-5.4 3.3,0 5.6,2.1 5.6,5.2 v 3.6 h -7.7 z m 4.2,-2.9 v -0.8 c 0,-1.3 -0.6,-2.2 -2.1,-2.2 -1.4,0 -2.1,0.8 -2.1,2.2 v 0.8 z"
           id="path35"
           style="fill:#58585a;fill-opacity:1" />
        <path
           inkscape:connector-curvature="0"
           class="st1"
           d="m 460.3,161.3 h -1 c -0.8,0 -1.2,0.5 -1.2,1.3 v 1.6 h 2.1 v 2.9 h -2.1 v 11.8 h -3.5 V 167 H 453 v -2.9 h 1.6 v -1.5 c 0,-3.5 1.5,-4.5 4.1,-4.5 0.5,0 1.1,0.1 1.7,0.2 v 3 z"
           id="path37"
           style="fill:#58585a;fill-opacity:1" />
        <path
           inkscape:connector-curvature="0"
           class="st1"
           d="m 467.3,161.3 h -1 c -0.8,0 -1.2,0.5 -1.2,1.3 v 1.6 h 2.1 v 2.9 h -2.1 v 11.8 h -3.5 V 167 H 460 v -2.9 h 1.6 v -1.5 c 0,-3.5 1.5,-4.5 4.1,-4.5 0.5,0 1.1,0.1 1.7,0.2 v 3 z"
           id="path39"
           style="fill:#58585a;fill-opacity:1" />
        <path
           inkscape:connector-curvature="0"
           class="st1"
           d="m 471.7,172 v 2 c 0,1.5 0.9,2.2 2.1,2.2 1.5,0 2.1,-1 2.1,-2.1 h 3.5 c -0.2,3.1 -2.1,5 -5.6,5 -3.4,0 -5.6,-2.1 -5.6,-5.4 v -5 c 0,-3.3 2.2,-5.4 5.6,-5.4 3.3,0 5.6,2.1 5.6,5.2 v 3.6 h -7.7 z m 4.1,-2.9 v -0.8 c 0,-1.3 -0.6,-2.2 -2.1,-2.2 -1.4,0 -2.1,0.8 -2.1,2.2 v 0.8 z"
           id="path41"
           style="fill:#58585a;fill-opacity:1" />
        <path
           inkscape:connector-curvature="0"
           class="st1"
           d="m 489.1,168.8 v -0.7 c 0,-1.2 -0.8,-1.8 -2.1,-1.8 -1.2,0 -2.1,0.6 -2.1,1.8 v 6.1 c 0,1.2 0.8,1.8 2.1,1.8 1.2,0 2.1,-0.6 2.1,-1.8 v -1 h 3.5 v 0.1 c 0,4 -2.1,5.8 -5.6,5.8 -3.5,0 -5.6,-1.7 -5.6,-5.8 V 169 c 0,-4 2.1,-5.8 5.6,-5.8 3.5,0 5.5,1.7 5.6,5.6 z"
           id="path43"
           style="fill:#58585a;fill-opacity:1" />
        <path
           inkscape:connector-curvature="0"
           class="st1"
           d="m 493.4,167 v -2.9 h 1.4 V 160 h 3.5 v 4.2 h 2.3 v 2.9 h -2.3 v 7.8 c 0,0.8 0.6,1.1 1.6,1.1 0.3,0 0.5,0 0.7,0 v 3 c -0.7,0.1 -1.4,0.1 -2,0.1 -2.3,0 -3.8,-0.8 -3.8,-3 v -9 h -1.4 z"
           id="path45"
           style="fill:#58585a;fill-opacity:1" />
        <path
           inkscape:connector-curvature="0"
           class="st1"
           d="m 502.3,160.8 v -3.2 h 3.5 v 3.2 z m 3.6,2.7 v 15.3 h -3.5 v -15.3 z"
           id="path47"
           style="fill:#58585a;fill-opacity:1" />
        <path
           inkscape:connector-curvature="0"
           class="st1"
           d="m 513.4,173.3 v 0 l 2.4,-9.8 h 3.5 l -4.2,15.3 h -3.5 l -4.2,-15.3 h 3.5 z"
           id="path49"
           style="fill:#58585a;fill-opacity:1" />
        <path
           inkscape:connector-curvature="0"
           class="st1"
           d="m 523.8,172 v 2 c 0,1.5 0.9,2.2 2.1,2.2 1.5,0 2.1,-1 2.1,-2.1 h 3.5 c -0.2,3.1 -2.1,5 -5.6,5 -3.4,0 -5.6,-2.1 -5.6,-5.4 v -5 c 0,-3.3 2.2,-5.4 5.6,-5.4 3.3,0 5.6,2.1 5.6,5.2 v 3.6 h -7.7 z m 4.2,-2.9 v -0.8 c 0,-1.3 -0.6,-2.2 -2.1,-2.2 -1.4,0 -2.1,0.8 -2.1,2.2 v 0.8 z"
           id="path51"
           style="fill:#58585a;fill-opacity:1" />
      </g>
      <g
         id="g91"
         style="fill:#58585a;fill-opacity:1">
        <path
           inkscape:connector-curvature="0"
           class="st1"
           d="m 379.7,206.9 v -20.3 h 3.5 v 6.7 c 1.2,-1.1 2.4,-2 3.9,-2 2.2,0 3.3,1.1 3.3,3.9 v 11.6 h -3.5 v -11.2 c 0,-1 -0.3,-1.7 -1.3,-1.7 -0.7,0 -1.5,0.7 -2.3,1.4 v 11.6 z"
           id="path55"
           style="fill:#58585a;fill-opacity:1" />
        <path
           inkscape:connector-curvature="0"
           class="st1"
           d="m 403.6,191.6 v 15.3 h -3.4 v -1.7 c -1.3,1.1 -2.5,2 -4,2 -2.2,0 -3.3,-1.1 -3.3,-3.9 v -11.6 h 3.5 v 11.2 c 0,1 0.3,1.7 1.3,1.7 0.7,0 1.5,-0.7 2.3,-1.4 v -11.6 z"
           id="path57"
           style="fill:#58585a;fill-opacity:1" />
        <path
           inkscape:connector-curvature="0"
           class="st1"
           d="m 406.1,191.6 h 3.4 v 1.7 c 1.2,-1 2.3,-2 3.8,-2 1.3,0 2.3,0.9 2.7,2.3 1.1,-1.2 2.2,-2.3 3.8,-2.3 2.1,0 3.2,1.3 3.2,4 v 11.5 h -3.5 v -11.6 c 0,-1 -0.4,-1.3 -0.9,-1.3 -0.7,0 -1.8,0.8 -2.2,1.4 v 11.6 h -3.5 v -11.6 c 0,-1 -0.4,-1.3 -1,-1.3 -0.8,0 -1.8,0.8 -2.2,1.4 V 207 h -3.5 v -15.4 z"
           id="path59"
           style="fill:#58585a;fill-opacity:1" />
        <path
           inkscape:connector-curvature="0"
           class="st1"
           d="m 425.3,196.1 c 0.1,-1.7 0.8,-2.9 1.9,-3.7 1,-0.8 2.4,-1.1 3.8,-1.1 3.8,0 5.2,1.9 5.2,4.6 v 9.7 c 0,0.4 0.1,0.8 0.2,1.2 h -3.5 c -0.1,-0.4 -0.1,-0.9 -0.3,-1.5 -1,1 -2.4,1.8 -4.2,1.8 -2.1,0 -3.5,-1.2 -3.5,-3.7 0,-3.5 3.4,-5.1 7.8,-6.4 v -1 c 0,-1.3 -0.8,-1.8 -1.8,-1.8 -1.1,0 -2,0.8 -2,1.9 z m 7.3,3.3 c -2.1,0.7 -4.2,1.9 -4.2,3.5 0,1 0.6,1.6 1.6,1.6 1.1,0 1.8,-0.6 2.7,-1.4 v -3.7 z"
           id="path61"
           style="fill:#58585a;fill-opacity:1" />
        <path
           inkscape:connector-curvature="0"
           class="st1"
           d="m 438.9,206.9 v -15.3 h 3.4 v 1.7 c 1.3,-1.1 2.5,-2 4,-2 2.2,0 3.3,1.1 3.3,3.9 v 11.6 H 446 v -11.2 c 0,-1 -0.3,-1.7 -1.3,-1.7 -0.7,0 -1.5,0.7 -2.3,1.4 v 11.6 z"
           id="path63"
           style="fill:#58585a;fill-opacity:1" />
        <path
           inkscape:connector-curvature="0"
           class="st1"
           d="m 452.6,189 v -3.2 h 3.5 v 3.2 z m 3.5,2.6 v 15.3 h -3.5 v -15.3 z"
           id="path65"
           style="fill:#58585a;fill-opacity:1" />
        <path
           inkscape:connector-curvature="0"
           class="st1"
           d="m 457.6,195.1 v -2.9 H 459 V 188 h 3.5 v 4.2 h 2.3 v 2.9 h -2.3 v 7.8 c 0,0.8 0.6,1.1 1.6,1.1 0.3,0 0.5,0 0.7,0 v 3 c -0.7,0.1 -1.4,0.1 -2,0.1 -2.3,0 -3.8,-0.8 -3.8,-3 v -9 z"
           id="path67"
           style="fill:#58585a;fill-opacity:1" />
        <path
           inkscape:connector-curvature="0"
           class="st1"
           d="m 465.8,196.1 c 0.1,-1.7 0.8,-2.9 1.9,-3.7 1,-0.8 2.4,-1.1 3.8,-1.1 3.8,0 5.2,1.9 5.2,4.6 v 9.7 c 0,0.4 0.1,0.8 0.2,1.2 h -3.5 c -0.1,-0.4 -0.1,-0.9 -0.3,-1.5 -1,1 -2.4,1.8 -4.2,1.8 -2.1,0 -3.5,-1.2 -3.5,-3.7 0,-3.5 3.4,-5.1 7.8,-6.4 v -1 c 0,-1.3 -0.8,-1.8 -1.8,-1.8 -1.1,0 -2,0.8 -2,1.9 z m 7.3,3.3 c -2.1,0.7 -4.2,1.9 -4.2,3.5 0,1 0.6,1.6 1.6,1.6 1.1,0 1.8,-0.6 2.7,-1.4 v -3.7 z"
           id="path69"
           style="fill:#58585a;fill-opacity:1" />
        <path
           inkscape:connector-curvature="0"
           class="st1"
           d="m 479.3,206.9 v -15.3 h 3.5 v 2 h 0.1 c 0.8,-1.5 1.9,-2.3 3.7,-2.3 v 3.8 c -0.6,-0.2 -1.3,-0.4 -1.9,-0.4 -1.2,0 -1.7,0.9 -1.7,1.7 v 10.5 z"
           id="path71"
           style="fill:#58585a;fill-opacity:1" />
        <path
           inkscape:connector-curvature="0"
           class="st1"
           d="m 488.3,189 v -3.2 h 3.5 v 3.2 z m 3.6,2.6 v 15.3 h -3.5 v -15.3 z"
           id="path73"
           style="fill:#58585a;fill-opacity:1" />
        <path
           inkscape:connector-curvature="0"
           class="st1"
           d="m 494.6,196.1 c 0.1,-1.7 0.8,-2.9 1.9,-3.7 1,-0.8 2.4,-1.1 3.8,-1.1 3.8,0 5.2,1.9 5.2,4.6 v 9.7 c 0,0.4 0.1,0.8 0.2,1.2 h -3.5 c -0.1,-0.4 -0.1,-0.9 -0.3,-1.5 -1,1 -2.4,1.8 -4.2,1.8 -2.1,0 -3.5,-1.2 -3.5,-3.7 0,-3.5 3.4,-5.1 7.8,-6.4 v -1 c 0,-1.3 -0.8,-1.8 -1.8,-1.8 -1.1,0 -2,0.8 -2,1.9 z m 7.3,3.3 c -2.1,0.7 -4.2,1.9 -4.2,3.5 0,1 0.6,1.6 1.6,1.6 1.1,0 1.8,-0.6 2.7,-1.4 v -3.7 z"
           id="path75"
           style="fill:#58585a;fill-opacity:1" />
        <path
           inkscape:connector-curvature="0"
           class="st1"
           d="m 508.1,206.9 v -15.3 h 3.4 v 1.7 c 1.3,-1.1 2.5,-2 4,-2 2.2,0 3.3,1.1 3.3,3.9 v 11.6 h -3.5 v -11.2 c 0,-1 -0.3,-1.7 -1.3,-1.7 -0.7,0 -1.5,0.7 -2.3,1.4 v 11.6 z"
           id="path77"
           style="fill:#58585a;fill-opacity:1" />
        <path
           inkscape:connector-curvature="0"
           class="st1"
           d="m 528,196.1 c 0.1,-1.7 0.8,-2.9 1.9,-3.7 1,-0.8 2.4,-1.1 3.8,-1.1 3.8,0 5.2,1.9 5.2,4.6 v 9.7 c 0,0.4 0.1,0.8 0.2,1.2 h -3.5 c -0.1,-0.4 -0.1,-0.9 -0.3,-1.5 -1,1 -2.4,1.8 -4.2,1.8 -2.1,0 -3.5,-1.2 -3.5,-3.7 0,-3.5 3.4,-5.1 7.8,-6.4 v -1 c 0,-1.3 -0.8,-1.8 -1.8,-1.8 -1.1,0 -2,0.8 -2,1.9 z m 7.4,3.3 c -2.1,0.7 -4.2,1.9 -4.2,3.5 0,1 0.6,1.6 1.6,1.6 1.1,0 1.8,-0.6 2.7,-1.4 v -3.7 z"
           id="path79"
           style="fill:#58585a;fill-opacity:1" />
        <path
           inkscape:connector-curvature="0"
           class="st1"
           d="m 549,196.9 v -0.7 c 0,-1.2 -0.8,-1.8 -2.1,-1.8 -1.2,0 -2.1,0.6 -2.1,1.8 v 6.1 c 0,1.2 0.8,1.8 2.1,1.8 1.2,0 2.1,-0.6 2.1,-1.8 v -1 h 3.5 v 0.1 c 0,4 -2.1,5.8 -5.6,5.8 -3.5,0 -5.6,-1.7 -5.6,-5.8 v -4.3 c 0,-4 2.1,-5.8 5.6,-5.8 3.5,0 5.5,1.7 5.6,5.6 z"
           id="path81"
           style="fill:#58585a;fill-opacity:1" />
        <path
           inkscape:connector-curvature="0"
           class="st1"
           d="m 553.3,195.1 v -2.9 h 1.4 V 188 h 3.5 v 4.2 h 2.3 v 2.9 h -2.3 v 7.8 c 0,0.8 0.6,1.1 1.6,1.1 0.3,0 0.5,0 0.7,0 v 3 c -0.7,0.1 -1.4,0.1 -2,0.1 -2.3,0 -3.8,-0.8 -3.8,-3 v -9 z"
           id="path83"
           style="fill:#58585a;fill-opacity:1" />
        <path
           inkscape:connector-curvature="0"
           class="st1"
           d="m 562.3,189 v -3.2 h 3.5 v 3.2 z m 3.5,2.6 v 15.3 h -3.5 v -15.3 z"
           id="path85"
           style="fill:#58585a;fill-opacity:1" />
        <path
           inkscape:connector-curvature="0"
           class="st1"
           d="m 568.5,197.1 c 0,-4 2.1,-5.8 5.6,-5.8 3.5,0 5.6,1.7 5.6,5.8 v 4.3 c 0,4 -2.1,5.8 -5.6,5.8 -3.5,0 -5.6,-1.7 -5.6,-5.8 z m 3.6,5.2 c 0,1.2 0.8,1.8 2.1,1.8 1.2,0 2.1,-0.6 2.1,-1.8 v -6.1 c 0,-1.2 -0.8,-1.8 -2.1,-1.8 -1.2,0 -2.1,0.6 -2.1,1.8 z"
           id="path87"
           style="fill:#58585a;fill-opacity:1" />
        <path
           inkscape:connector-curvature="0"
           class="st1"
           d="m 582,206.9 v -15.3 h 3.4 v 1.7 c 1.3,-1.1 2.5,-2 4,-2 2.2,0 3.3,1.1 3.3,3.9 v 11.6 h -3.5 v -11.2 c 0,-1 -0.3,-1.7 -1.3,-1.7 -0.7,0 -1.5,0.7 -2.3,1.4 v 11.6 z"
           id="path89"
           style="fill:#58585a;fill-opacity:1" />
      </g>
      <g
         id="g103"
         style="fill:#58585a;fill-opacity:1">
        <path
           inkscape:connector-curvature="0"
           class="st1"
           d="M 110.5,207.3 97.7,176 h -7 v 31.3 H 76 v -77 h 21.3 c 17.7,0 26.1,8.5 26.1,23 0,9.6 -3.4,16.5 -11.6,19.6 l 14.5,34.3 H 110.5 Z M 90.7,163.8 h 7.6 c 6.5,0 10.4,-3.2 10.4,-10.7 0,-7.5 -3.9,-10.7 -10.4,-10.7 h -7.6 z"
           id="path93"
           style="fill:#58585a;fill-opacity:1" />
        <path
           inkscape:connector-curvature="0"
           class="st1"
           d="m 135.2,207.3 v -77 h 40.3 v 13 H 149.9 V 161 h 19.5 v 13 h -19.5 v 20.3 h 26.6 v 13 z"
           id="path95"
           style="fill:#58585a;fill-opacity:1" />
        <path
           inkscape:connector-curvature="0"
           class="st1"
           d="m 183.3,207.3 19.1,-77 h 18.9 l 18.5,77 H 225.7 L 222,191.1 h -20.4 l -4.2,16.2 z m 21,-29.2 h 14.6 L 211.8,147 h -0.2 z"
           id="path97"
           style="fill:#58585a;fill-opacity:1" />
        <path
           inkscape:connector-curvature="0"
           class="st1"
           d="m 261.2,184.5 c 0,8.5 3.7,10.9 9.6,10.9 5.9,0 9.6,-2.3 9.6,-10.9 v -5.1 h 14.7 v 3.2 c 0,19 -10,25.8 -24.3,25.8 -14.3,0 -24.3,-6.8 -24.3,-25.8 v -27.5 c 0,-19 10,-25.8 24.3,-25.8 14.3,0 24.3,6.8 24.3,25.8 v 0.2 h -14.7 v -2.1 c 0,-8.5 -3.7,-10.9 -9.6,-10.9 -5.9,0 -9.6,2.3 -9.6,10.9 z"
           id="path99"
           style="fill:#58585a;fill-opacity:1" />
        <path
           inkscape:connector-curvature="0"
           class="st1"
           d="m 307.9,207.3 v -77 h 14.7 V 161 h 20.8 v -30.7 h 14.7 v 77 H 343.4 V 174 h -20.8 v 33.3 z"
           id="path101"
           style="fill:#58585a;fill-opacity:1" />
      </g>
    </g>
  </g>
</svg>
